# xmcd CD database file
#
# Track frame offsets:
#	150
#	24500
#	44577
#	65992
#	89247
#	109962
#	133710
#	157542
#	180660
#	202260
#	228750
#	251522
#	274315
#	292452
#	313097
#
# Disc length: 4495 seconds
#
# Revision: 0
# Processed by: cddbd v1.5.2PL0 Copyright (c) Steve Scherf et al.
# Submitted via: NeoAudio 9.9.9
#
DISCID=ed118d0f
DTITLE=Puchi Colon - Lo Mejor De Mi Para El
DYEAR=2004
DGENRE=Salsa
TTITLE0=El Todo Poderoso
TTITLE1=Mañana
TTITLE2=Amor De Cristo
TTITLE3=On My Knees
TTITLE4=Asustado
TTITLE5=Renuevame
TTITLE6=Siempre Te Adoraré
TTITLE7=Las Señales están Cumplidas
TTITLE8=Fuí La Razón
TTITLE9=No Te Rindas
TTITLE10=Voy A Comenzar
TTITLE11=No Es Facil
TTITLE12=El Te Ayudará
TTITLE13=All That I Need
TTITLE14=Unidos En Amor
EXTD=YEAR: 2004
EXTT0=
EXTT1=
EXTT2=
EXTT3=
EXTT4=
EXTT5=
EXTT6=
EXTT7=
EXTT8=
EXTT9=
EXTT10=
EXTT11=
EXTT12=
EXTT13=
EXTT14=
PLAYORDER=
